# xmcd
#
# Track frame offsets: 
#        150
#        11662
#        23285
#        36110
#        47402
#        72599
#        84398
#        93467
#        101025
#        113190
#        128278
#        137096
#        149412
#
# Disc length: 2160 seconds
#
# Revision: 0
# Processed by: cddbd v1.5.1PL0 Copyright (c) Steve Scherf et al.
# Submitted via: ExactAudioCopy v0.95b2
#
DISCID=a3086e0d
DTITLE=Ralph Stanley - Mountain Gospel
DYEAR=2004
DGENRE=Bluegrass
TTITLE0=Bright Morning Stars
TTITLE1=Going Up Home To Live In Green Pastures
TTITLE2=The Fields Have Turned Brown
TTITLE3=Who Will Sing For Me
TTITLE4=Village Church Yard
TTITLE5=Stairway to Heaven
TTITLE6=I am the Man, Thomas
TTITLE7=Step Out in the Sunshine
TTITLE8=Rank Stranger
TTITLE9=Great High Mountain
TTITLE10=Who is That?
TTITLE11=Two Coats Before Me
TTITLE12=Death is Only a Dream
EXTD=
EXTT0=
EXTT1=
EXTT2=
EXTT3=
EXTT4=
EXTT5=
EXTT6=
EXTT7=
EXTT8=
EXTT9=
EXTT10=
EXTT11=
EXTT12=
PLAYORDER=
